<svg xmlns="http://www.w3.org/2000/svg" xmlns:xlink="http://www.w3.org/1999/xlink" fill="none" version="1.1" width="1559.6400146484375" height="813.739990234375" viewBox="0 0 1559.6400146484375 813.739990234375"><defs><clipPath id="master_svg0_427_5165"><rect x="0" y="0" width="1559.6400146484375" height="813.739990234375" rx="0"/></clipPath></defs><g clip-path="url(#master_svg0_427_5165)"><path d="M502.66000361367185,201.6199951171875L557.5599980136719,201.6199951171875C562.6099850136719,201.6199951171875,566.7000120136719,205.7200012171875,566.7000120136719,210.7599945171875L566.7000120136719,498.6400151171875C566.7000120136719,503.6900051171875,562.6000370136719,507.7800251171875,557.5599980136719,507.7800251171875L502.66000361367185,507.7800251171875C497.6100159136719,507.7800251171875,493.5199890136719,503.6800251171875,493.5199890136719,498.6400151171875L493.5199890136719,210.7599945171875C493.5199890136719,205.7099914171875,497.61999511367185,201.6199951171875,502.66000361367185,201.6199951171875Z" fill="#0096FA" fill-opacity="1"/><path d="M842.379999921875,357.2999851171875C841.280029921875,355.72998511718754,841.280029921875,353.62997511718754,842.379999921875,352.0599951171875L942.689999921875,208.8099975171875C944.809999921875,205.7799988171875,942.6400099218749,201.6199951171875,938.950009921875,201.6199951171875L872.660029921875,201.6199951171875C863.7100199218751,201.6199951171875,855.330019921875,205.9899902171875,850.190059921875,213.3099971171875L778.060059921875,316.3200051171875C776.240049921875,318.9200151171875,772.400089921875,318.9200151171875,770.580079921875,316.3200051171875L698.4500729218751,213.3099971171875C693.320067921875,205.9799957171875,684.930053921875,201.6199951171875,675.980102921875,201.6199951171875L609.690124521875,201.6199951171875C606.000122071875,201.6199951171875,603.830139121875,205.7799988171875,605.950134281875,208.8099975171875L706.260129921875,352.0599951171875C707.3601099218749,353.63000511718747,707.3601099218749,355.73001511718746,706.260129921875,357.2999851171875L605.920166011875,500.5999751171875C603.800170921875,503.6299751171875,605.970153811875,507.7899751171875,609.660156221875,507.7899751171875L675.950133921875,507.7899751171875C684.900146921875,507.7899751171875,693.280150921875,503.4199851171875,698.420104921875,496.0999751171875L770.580079921875,393.0399751171875C772.400089921875,390.4399751171875,776.240049921875,390.4399751171875,778.060059921875,393.0399751171875L850.220089921875,496.0999751171875C855.350099921875,503.4299651171875,863.740109921875,507.7899751171875,872.690059921875,507.7899751171875L938.980039921875,507.7899751171875C942.6700399218751,507.7899751171875,944.8400299218749,503.6299751171875,942.720029921875,500.5999751171875L842.379999921875,357.2999851171875Z" fill="#0096FA" fill-opacity="1"/><path d="M137.77000427241407,535.1799796240234C137.77000427241407,540.2299696240234,141.86000062441406,544.3199896240235,146.91000362441406,544.3199896240235L201.80999802441406,544.3199896240235C206.86000102441406,544.3199896240235,210.94999702441407,540.2299696240234,210.94999702441407,535.1799796240234L210.94999702441407,485.24998962402344C234.19999702441407,499.50998962402343,261.54998502441407,507.7300296240234,290.82000502441406,507.7300296240234C375.35000502441403,507.7300296240234,443.87001502441404,439.2100196240234,443.87001502441404,354.67998962402345C443.87001502441404,270.1499636240234,375.35000502441403,201.62998962402344,290.82000502441406,201.62998962402344C254.86001502441405,201.62998962402344,221.83001702441408,214.05999762402342,195.70001202441406,234.81999162402343L177.05001802441407,205.82998652402344C175.37002602441407,203.20999142402343,172.47001602441406,201.62998962402344,169.36001602441405,201.62998962402344L146.90002442441406,201.62998962402344C141.85002132441406,201.62998962402344,137.76002502441406,205.71998592402343,137.76002502441406,210.76998902402343L137.76002502441406,535.1799796240234L137.77000427241407,535.1799796240234ZM290.8299850244141,434.54000962402347C246.71998502441406,434.54000962402347,210.95999102441408,398.77999962402345,210.95999102441408,354.67000962402346C210.95999102441408,310.56002962402346,246.71998502441406,274.80001862402344,290.8299850244141,274.80001862402344C334.94000502441406,274.80001862402344,370.6999850244141,310.56002962402346,370.6999850244141,354.67000962402346C370.6999850244141,398.77999962402345,334.939975024414,434.54000962402347,290.8299850244141,434.54000962402347Z" fill="#0096FA" fill-opacity="1"/><path d="M566.7000120136719,128.4400021035156Q566.7000120136719,129.33823410351562,566.6559370136719,130.2353901035156Q566.6118620136718,131.13254210351562,566.5238270136718,132.02645110351563Q566.4357830136719,132.92035710351564,566.3039860136719,133.80886810351564Q566.1721880136719,134.69738010351563,565.9969480136718,135.5783541035156Q565.8217160136719,136.45932810351562,565.6034700136719,137.33064310351563Q565.3852080136719,138.2019581035156,565.1244660136718,139.06151610351563Q564.8637240136719,139.92107410351562,564.5611110136718,140.76680010351564Q564.2584990136719,141.61252610351562,563.9147570136719,142.44238310351562Q563.5710140136719,143.27224010351563,563.1869810136718,144.08423610351562Q562.8029330136719,144.8962331035156,562.3795090136718,145.6884041035156Q561.9560850136719,146.48057510351563,561.4943010136719,147.2510151035156Q561.0325160136719,148.02145410351562,560.5334780136719,148.76831010351563Q560.0344390136719,149.51516710351564,559.4993590136719,150.23663710351562Q558.9642870136719,150.95810710351563,558.3944550136719,151.65245010351563Q557.8246230136718,152.34679410351563,557.2214010136719,153.0123401035156Q556.6181870136719,153.67788710351562,555.9830400136718,154.31303410351563Q555.3478930136719,154.94818110351562,554.6823460136719,155.55139910351562Q554.0168000136719,156.15461710351562,553.3224560136719,156.7244491035156Q552.6281130136719,157.29428110351563,551.9066390136719,157.82935310351564Q551.1851730136718,158.36442610351563,550.4383160136719,158.86346410351564Q549.6914600136719,159.36250310351562,548.9210200136719,159.8242801035156Q548.1505810136719,160.2860721035156,547.3584140136719,160.70949510351562Q546.5662380136719,161.13291910351563,545.7542420136718,161.51696010351563Q544.9422450136718,161.90100110351563,544.1123850136719,162.24474310351565Q543.2825240136718,162.5884861035156,542.4367980136719,162.89109010351564Q541.5910720136719,163.1936951035156,540.7315140136719,163.45443710351563Q539.8719560136719,163.71517910351562,539.0006450136718,163.93343310351563Q538.1293260136719,164.15168810351562,537.2483520136718,164.32691910351562Q536.3673780136719,164.50215910351562,535.4788670136719,164.63395710351563Q534.5903550136719,164.7657621035156,533.6964490136719,164.85380510351564Q532.8025400136719,164.9418491035156,531.9053880136719,164.98591610351562Q531.0082320136719,165.02999910351562,530.1100010136719,165.02999910351562Q529.2117650136719,165.02999910351562,528.3146130136719,164.98591610351562Q527.4174610136719,164.9418491035156,526.5235520136719,164.85380510351564Q525.6296420136719,164.7657621035156,524.7411290136719,164.63395710351563Q523.8526170136719,164.50215910351562,522.9716420136718,164.32691910351562Q522.0906660136719,164.15168810351562,521.2193510136718,163.93343310351563Q520.3480360136718,163.71517910351562,519.4884820136718,163.45443710351563Q518.6289210136719,163.1936951035156,517.7831940136718,162.89109010351564Q516.9374660136718,162.5884861035156,516.1076070136719,162.24474310351565Q515.2777480136718,161.90100110351563,514.4657540136719,161.51696810351564Q513.6537590136719,161.13291910351563,512.8615880136718,160.70949510351562Q512.0694160136719,160.2860721035156,511.29897301367185,159.82428710351564Q510.52853201367185,159.36250310351562,509.78167701367187,158.86346410351564Q509.0348230136719,158.36442610351563,508.31335501367187,157.8293461035156Q507.59188701367185,157.29427310351562,506.89754301367185,156.72444110351563Q506.20319701367185,156.1546101035156,505.53765001367185,155.55139110351564Q504.8721030136719,154.94817310351561,504.2369550136719,154.31303010351562Q503.6018070136719,153.67788710351562,502.9985895136719,153.0123401035156Q502.39537241367185,152.34679410351563,501.8255386136719,151.65245010351563Q501.2557044136719,150.9581031035156,500.72062681367186,150.23663310351563Q500.1855492136719,149.51516010351563,499.6865172136719,148.7683071035156Q499.1874847136719,148.02145410351562,498.72570041367186,147.25101110351562Q498.26391551367186,146.4805721035156,497.84049131367186,145.68840010351562Q497.41706611367186,144.89622910351562,497.03302141367186,144.08423610351562Q496.6489768136719,143.27224010351563,496.30523731367185,142.44238310351562Q495.9614978136719,141.61252610351562,495.6588919136719,140.76680010351564Q495.35628591367185,139.92107410351562,495.09554241367186,139.06151610351563Q494.83479881367185,138.2019581035156,494.6165457136719,137.33064310351563Q494.39829254367186,136.45932810351562,494.22305566367186,135.5783541035156Q494.0478189036719,134.69738010351563,493.9160205436719,133.80886810351564Q493.7842222436719,132.92035710351564,493.69617989367185,132.02645110351563Q493.60813754067186,131.13254210351562,493.5640632766719,130.2353901035156Q493.5199890136719,129.33823410351562,493.5199890136719,128.4400021035156Q493.5199890136719,127.54176710351562,493.5640632766719,126.64461510351563Q493.60813754067186,125.74746710351562,493.69617989367185,124.85355710351563Q493.7842222436719,123.95964810351563,493.91602057367186,123.07113410351562Q494.0478189036719,122.18262110351563,494.22305566367186,121.30164710351562Q494.39829254367186,120.42067110351563,494.6165457136719,119.54935410351563Q494.83479881367185,118.67803910351563,495.09554241367186,117.81848510351563Q495.35628591367185,116.95892710351562,495.6588919136719,116.11320110351562Q495.9614978136719,115.26747510351562,496.30523731367185,114.43761410351563Q496.6489768136719,113.60775410351562,497.03302141367186,112.79576110351562Q497.41706611367186,111.98376810351563,497.84049081367186,111.19159710351562Q498.26391501367186,110.39942510351563,498.72569991367186,109.62898410351562Q499.1874847136719,108.85854310351563,499.6865167136719,108.11168910351563Q500.18554881367186,107.36483510351563,500.72062681367186,106.64336710351563Q501.2557044136719,105.92189810351563,501.8255386136719,105.22755410351563Q502.39537241367185,104.53320910351563,502.9985895136719,103.86766110351563Q503.6018070136719,103.20211410351563,504.2369550136719,102.56696710351562Q504.8721030136719,101.93182010351562,505.53765001367185,101.32860280351562Q506.20319701367185,100.72538570351563,506.89754301367185,100.15555290351563Q507.59188701367185,99.58571860351563,508.31335501367187,99.05064110351563Q509.0348230136719,98.51556350351562,509.78167701367187,98.01653150351562Q510.52853201367185,97.51749940351563,511.29897301367185,97.05571510351562Q512.0694160136719,96.59393020351563,512.8615880136718,96.17050600351563Q513.6537590136719,95.74708130351563,514.4657540136719,95.36303690351562Q515.2777480136718,94.97899250351563,516.1076070136719,94.63525320351563Q516.9374660136718,94.29151390351562,517.7831940136718,93.98890800351562Q518.6289210136719,93.68630220351562,519.4884820136718,93.42555880351563Q520.3480360136718,93.16481520351563,521.2193510136718,92.94656230351562Q522.0906660136719,92.72830921351563,522.9716420136718,92.55307245351563Q523.8526170136719,92.37783575351563,524.7411310136719,92.24603748351562Q525.6296420136719,92.11423921351563,526.5235520136719,92.02619691351562Q527.4174610136719,91.93815459351562,528.3146130136719,91.89408034851563Q529.2117650136719,91.85000610351562,530.1100010136719,91.85000610351562Q531.0082320136719,91.85000610351562,531.9053880136719,91.89408034851563Q532.8025400136719,91.93815459351562,533.6964490136719,92.02619691351562Q534.5903550136719,92.11423921351563,535.4788670136719,92.24603748351562Q536.3673780136719,92.37783575351563,537.2483520136718,92.55307245351563Q538.1293260136719,92.72830921351563,539.0006450136718,92.94656230351562Q539.8719560136719,93.16481520351563,540.7315140136719,93.42555880351563Q541.5910720136719,93.68630220351562,542.4367980136719,93.98890800351562Q543.2825240136718,94.29151390351562,544.1123850136719,94.63525320351563Q544.9422450136718,94.97899250351563,545.7542420136718,95.36303710351562Q546.5662350136719,95.74708130351563,547.3584060136719,96.17050600351563Q548.1505810136719,96.59393020351563,548.9210200136719,97.05571460351563Q549.6914600136719,97.51749940351563,550.4383160136719,98.01653150351562Q551.1851730136718,98.51556350351562,551.9066390136719,99.05064110351563Q552.6281130136719,99.58571820351563,553.3224560136719,100.15555190351563Q554.0168000136719,100.72538570351563,554.6823460136719,101.32860280351562Q555.3478930136719,101.93182010351562,555.9830400136718,102.56696710351562Q556.6181870136719,103.20211410351563,557.2214050136719,103.86766110351563Q557.8246230136718,104.53320910351563,558.3944630136718,105.22755410351563Q558.9642940136719,105.92189810351563,559.4993670136719,106.64336510351562Q560.0344390136719,107.36483310351562,560.5334780136719,108.11168710351562Q561.0325160136719,108.85854110351562,561.4942930136718,109.62898210351563Q561.9560850136719,110.39942510351563,562.3795090136718,111.19159710351562Q562.8029330136719,111.98376810351563,563.1869740136718,112.79576110351562Q563.5710140136719,113.60775410351562,563.9147570136719,114.43761410351563Q564.2584990136719,115.26747510351562,564.5611110136718,116.11320110351562Q564.8637240136719,116.95892710351562,565.1244660136718,117.81848510351563Q565.3852080136719,118.67803910351563,565.6034620136719,119.54935410351563Q565.8217160136719,120.42066910351562,565.9969480136718,121.30164510351563Q566.1721880136719,122.18262110351563,566.3039860136719,123.07113310351562Q566.4357830136719,123.95964410351561,566.5238270136718,124.85355410351562Q566.6118620136718,125.74746310351563,566.6559370136719,126.64461510351563Q566.7000120136719,127.54176710351562,566.7000120136719,128.4400021035156Z" fill="#0096FA" fill-opacity="1"/><path d="M990.9500122234375,201.6199951171875L1045.8499755234375,201.6199951171875C1050.9000245234374,201.6199951171875,1054.9899905234374,205.7200012171875,1054.9899905234374,210.7599945171875L1054.9899905234374,498.6400151171875C1054.9899905234374,503.6900051171875,1050.8900145234375,507.7800251171875,1045.8499755234375,507.7800251171875L990.9499511234375,507.7800251171875C985.8999634234375,507.7800251171875,981.8099365234375,503.6800251171875,981.8099365234375,498.6400151171875L981.8099365234375,210.7599945171875C981.8099365234375,205.7099914171875,985.9099121234375,201.6199951171875,990.9500122234375,201.6199951171875Z" fill="#0096FA" fill-opacity="1"/><path d="M1054.9899595234374,128.4400021035156Q1054.9899595234374,129.33823410351562,1054.9458845234376,130.2353901035156Q1054.9018095234376,131.13254210351562,1054.8137745234376,132.02645110351563Q1054.7257305234375,132.92035710351564,1054.5939335234375,133.80886810351564Q1054.4621355234376,134.69738010351563,1054.2868955234376,135.5783541035156Q1054.1116635234375,136.45932810351562,1053.8934175234376,137.33064310351563Q1053.6751555234375,138.2019581035156,1053.4144135234376,139.06151610351563Q1053.1536715234374,139.92107410351562,1052.8510585234376,140.76680010351564Q1052.5484465234374,141.61252610351562,1052.2047045234376,142.44238310351562Q1051.8609615234375,143.27224010351563,1051.4769285234374,144.08423610351562Q1051.0928805234375,144.8962331035156,1050.6694565234375,145.6884041035156Q1050.2460325234374,146.48057510351563,1049.7842485234376,147.2510151035156Q1049.3224635234376,148.02145410351562,1048.8234255234374,148.76831010351563Q1048.3243865234374,149.51516710351564,1047.7893065234375,150.23663710351562Q1047.2542345234374,150.95810710351563,1046.6844025234375,151.65245010351563Q1046.1145705234376,152.34679410351563,1045.5113485234374,153.0123401035156Q1044.9081345234374,153.67788710351562,1044.2729875234375,154.31303410351563Q1043.6378405234375,154.94818110351562,1042.9722935234374,155.55139910351562Q1042.3067475234375,156.15461710351562,1041.6124035234375,156.7244491035156Q1040.9180605234376,157.29428110351563,1040.1965865234374,157.82935310351564Q1039.4751205234375,158.36442610351563,1038.7282635234376,158.86346410351564Q1037.9814075234376,159.36250310351562,1037.2109675234376,159.8242801035156Q1036.4405285234375,160.2860721035156,1035.6483615234374,160.70949510351562Q1034.8561855234375,161.13291910351563,1034.0441895234376,161.51696010351563Q1033.2321925234376,161.90100110351563,1032.4023325234375,162.24474310351565Q1031.5724715234376,162.5884861035156,1030.7267455234376,162.89109010351564Q1029.8810195234375,163.1936951035156,1029.0214615234374,163.45443710351563Q1028.1619035234376,163.71517910351562,1027.2905925234375,163.93343310351563Q1026.4192735234376,164.15168810351562,1025.5382995234374,164.32691910351562Q1024.6573255234375,164.50215910351562,1023.7688145234375,164.63395710351563Q1022.8803025234375,164.7657621035156,1021.9863965234375,164.85380510351564Q1021.0924875234375,164.9418491035156,1020.1953355234375,164.98591610351562Q1019.2981795234375,165.02999910351562,1018.3999485234375,165.02999910351562Q1017.5017125234375,165.02999910351562,1016.6045605234375,164.98591610351562Q1015.7074085234375,164.9418491035156,1014.8134995234375,164.85380510351564Q1013.9195895234375,164.7657621035156,1013.0310765234375,164.63395710351563Q1012.1425645234375,164.50215910351562,1011.2615895234375,164.32691910351562Q1010.3806135234375,164.15168810351562,1009.5092985234375,163.93343310351563Q1008.6379835234375,163.71517910351562,1007.7784295234375,163.45443710351563Q1006.9188685234375,163.1936951035156,1006.0731415234375,162.89109010351564Q1005.2274135234375,162.5884861035156,1004.3975545234375,162.24474310351565Q1003.5676955234375,161.90100110351563,1002.7557015234376,161.51696810351564Q1001.9437065234375,161.13291910351563,1001.1515355234375,160.70949510351562Q1000.3593635234375,160.2860721035156,999.5889205234375,159.82428710351564Q998.8184795234375,159.36250310351562,998.0716245234375,158.86346410351564Q997.3247705234375,158.36442610351563,996.6033025234375,157.8293461035156Q995.8818345234375,157.29427310351562,995.1874905234375,156.72444110351563Q994.4931445234375,156.1546101035156,993.8275975234375,155.55139110351564Q993.1620505234375,154.94817310351561,992.5269025234375,154.31303010351562Q991.8917545234375,153.67788710351562,991.2885370234375,153.0123401035156Q990.6853199234375,152.34679410351563,990.1154861234374,151.65245010351563Q989.5456519234375,150.9581031035156,989.0105743234375,150.23663310351563Q988.4754967234375,149.51516010351563,987.9764647234375,148.7683071035156Q987.4774322234375,148.02145410351562,987.0156479234375,147.25101110351562Q986.5538630234375,146.4805721035156,986.1304388234375,145.68840010351562Q985.7070136234375,144.89622910351562,985.3229689234375,144.08423610351562Q984.9389243234375,143.27224010351563,984.5951848234375,142.44238310351562Q984.2514453234375,141.61252610351562,983.9488394234374,140.76680010351564Q983.6462334234375,139.92107410351562,983.3854899234375,139.06151610351563Q983.1247463234375,138.2019581035156,982.9064932234375,137.33064310351563Q982.6882400534375,136.45932810351562,982.5130031734375,135.5783541035156Q982.3377664134375,134.69738010351563,982.2059680534375,133.80886810351564Q982.0741697534374,132.92035710351564,981.9861274034375,132.02645110351563Q981.8980850504375,131.13254210351562,981.8540107864375,130.2353901035156Q981.8099365234375,129.33823410351562,981.8099365234375,128.4400021035156Q981.8099365234375,127.54176710351562,981.8540107864375,126.64461510351563Q981.8980850504375,125.74746710351562,981.9861274034375,124.85355710351563Q982.0741697534374,123.95964810351563,982.2059680834375,123.07113410351562Q982.3377664134375,122.18262110351563,982.5130031734375,121.30164710351562Q982.6882400534375,120.42067110351563,982.9064932234375,119.54935410351563Q983.1247463234375,118.67803910351563,983.3854899234375,117.81848510351563Q983.6462334234375,116.95892710351562,983.9488394234374,116.11320110351562Q984.2514453234375,115.26747510351562,984.5951848234375,114.43761410351563Q984.9389243234375,113.60775410351562,985.3229689234375,112.79576110351562Q985.7070136234375,111.98376810351563,986.1304383234375,111.19159710351562Q986.5538625234375,110.39942510351563,987.0156474234375,109.62898410351562Q987.4774322234375,108.85854310351563,987.9764642234375,108.11168910351563Q988.4754963234375,107.36483510351563,989.0105743234375,106.64336710351563Q989.5456519234375,105.92189810351563,990.1154861234374,105.22755410351563Q990.6853199234375,104.53320910351563,991.2885370234375,103.86766110351563Q991.8917545234375,103.20211410351563,992.5269025234375,102.56696710351562Q993.1620505234375,101.93182010351562,993.8275975234375,101.32860280351562Q994.4931445234375,100.72538570351563,995.1874905234375,100.15555290351563Q995.8818345234375,99.58571860351563,996.6033025234375,99.05064110351563Q997.3247705234375,98.51556350351562,998.0716245234375,98.01653150351562Q998.8184795234375,97.51749940351563,999.5889205234375,97.05571510351562Q1000.3593635234375,96.59393020351563,1001.1515355234375,96.17050600351563Q1001.9437065234375,95.74708130351563,1002.7557015234376,95.36303690351562Q1003.5676955234375,94.97899250351563,1004.3975545234375,94.63525320351563Q1005.2274135234375,94.29151390351562,1006.0731415234375,93.98890800351562Q1006.9188685234375,93.68630220351562,1007.7784295234375,93.42555880351563Q1008.6379835234375,93.16481520351563,1009.5092985234375,92.94656230351562Q1010.3806135234375,92.72830921351563,1011.2615895234375,92.55307245351563Q1012.1425645234375,92.37783575351563,1013.0310785234375,92.24603748351562Q1013.9195895234375,92.11423921351563,1014.8134995234375,92.02619691351562Q1015.7074085234375,91.93815459351562,1016.6045605234375,91.89408034851563Q1017.5017125234375,91.85000610351562,1018.3999485234375,91.85000610351562Q1019.2981795234375,91.85000610351562,1020.1953355234375,91.89408034851563Q1021.0924875234375,91.93815459351562,1021.9863965234375,92.02619691351562Q1022.8803025234375,92.11423921351563,1023.7688145234375,92.24603748351562Q1024.6573255234375,92.37783575351563,1025.5382995234374,92.55307245351563Q1026.4192735234376,92.72830921351563,1027.2905925234375,92.94656230351562Q1028.1619035234376,93.16481520351563,1029.0214615234374,93.42555880351563Q1029.8810195234375,93.68630220351562,1030.7267455234376,93.98890800351562Q1031.5724715234376,94.29151390351562,1032.4023325234375,94.63525320351563Q1033.2321925234376,94.97899250351563,1034.0441895234376,95.36303710351562Q1034.8561825234374,95.74708130351563,1035.6483535234374,96.17050600351563Q1036.4405285234375,96.59393020351563,1037.2109675234376,97.05571460351563Q1037.9814075234376,97.51749940351563,1038.7282635234376,98.01653150351562Q1039.4751205234375,98.51556350351562,1040.1965865234374,99.05064110351563Q1040.9180605234376,99.58571820351563,1041.6124035234375,100.15555190351563Q1042.3067475234375,100.72538570351563,1042.9722935234374,101.32860280351562Q1043.6378405234375,101.93182010351562,1044.2729875234375,102.56696710351562Q1044.9081345234374,103.20211410351563,1045.5113525234376,103.86766110351563Q1046.1145705234376,104.53320910351563,1046.6844105234375,105.22755410351563Q1047.2542415234375,105.92189810351563,1047.7893145234375,106.64336510351562Q1048.3243865234374,107.36483310351562,1048.8234255234374,108.11168710351562Q1049.3224635234376,108.85854110351562,1049.7842405234376,109.62898210351563Q1050.2460325234374,110.39942510351563,1050.6694565234375,111.19159710351562Q1051.0928805234375,111.98376810351563,1051.4769215234376,112.79576110351562Q1051.8609615234375,113.60775410351562,1052.2047045234376,114.43761410351563Q1052.5484465234374,115.26747510351562,1052.8510585234376,116.11320110351562Q1053.1536715234374,116.95892710351562,1053.4144135234376,117.81848510351563Q1053.6751555234375,118.67803910351563,1053.8934095234374,119.54935410351563Q1054.1116635234375,120.42066910351562,1054.2868955234376,121.30164510351563Q1054.4621355234376,122.18262110351563,1054.5939335234375,123.07113310351562Q1054.7257305234375,123.95964410351561,1054.8137745234376,124.85355410351562Q1054.9018095234376,125.74746310351563,1054.9458845234376,126.64461510351563Q1054.9899595234374,127.54176710351562,1054.9899595234374,128.4400021035156Z" fill="#0096FA" fill-opacity="1"/><path d="M1353.3599864453124,219.22000085839844L1267.2399864453125,443.55999985839844C1265.7399864453125,447.4699998583984,1260.2099564453124,447.4699998583984,1258.7099564453124,443.55999985839844L1172.5899654453126,219.22000085839844C1168.5200194453125,208.61999515839844,1158.3399654453126,201.61999511718744,1146.9899904453125,201.61999511718744L1094.0899658453125,201.61999511718744C1090.8900146453125,201.61999511718744,1088.6799316453125,204.83000185839845,1089.8299560553126,207.81999205839844L1202.7199664453126,501.90995985839845C1204.0799564453125,505.43998985839846,1207.4699664453126,507.7799498583984,1211.2499964453125,507.7799498583984L1314.6899364453125,507.7799498583984C1318.4699664453126,507.7799498583984,1321.8699964453126,505.4499998583984,1323.2199664453126,501.90995985839845L1436.1099864453124,207.81997675839844C1437.2600064453125,204.82997135839844,1435.0499264453124,201.61997985839844,1431.8499764453124,201.61997985839844L1378.9499464453124,201.61997985839844C1367.5999764453124,201.61997985839844,1357.4199264453125,208.61997985839844,1353.3499764453124,219.21998585839845L1353.3599864453124,219.22000085839844Z" fill="#0096FA" fill-opacity="1"/></g></svg>